<svg width="24" height="24" viewBox="0 0 24 24" fill="none" xmlns="http://www.w3.org/2000/svg">
<path d="M12 9.74998V16.5M12 16.5L9.00001 13.5M12 16.5L15 13.5M6.75001 19.5C5.67944 19.5011 4.64353 19.1206 3.82831 18.4267C3.01309 17.7327 2.47196 16.7709 2.30212 15.7139C2.13227 14.6569 2.34484 13.574 2.90163 12.6596C3.45842 11.7452 4.32297 11.0593 5.34001 10.725C5.07871 9.38615 5.34877 7.99818 6.09299 6.855C6.83722 5.71181 7.99718 4.90318 9.32723 4.60033C10.6573 4.29749 12.053 4.52422 13.2188 5.2325C14.3846 5.94078 15.2289 7.07501 15.573 8.39498C16.105 8.22196 16.6748 8.20114 17.218 8.33488C17.7612 8.46862 18.2562 8.75159 18.6471 9.15182C19.038 9.55206 19.3092 10.0536 19.43 10.5998C19.5509 11.1461 19.5166 11.7152 19.331 12.243C20.1497 12.5557 20.833 13.1451 21.2626 13.9089C21.6921 14.6728 21.8407 15.5629 21.6826 16.4249C21.5245 17.2868 21.0697 18.0662 20.3971 18.6279C19.7244 19.1896 18.8763 19.4982 18 19.5H6.75001Z" stroke="#0C0D0C" stroke-width="1.5" stroke-linecap="round" stroke-linejoin="round"/>
</svg>
