<svg width="24" height="24" viewBox="0 0 24 24" fill="none" xmlns="http://www.w3.org/2000/svg">
<path d="M8.625 9.75C8.625 9.84946 8.58549 9.94484 8.51517 10.0152C8.44484 10.0855 8.34946 10.125 8.25 10.125C8.15054 10.125 8.05516 10.0855 7.98484 10.0152C7.91451 9.94484 7.875 9.84946 7.875 9.75C7.875 9.65055 7.91451 9.55516 7.98484 9.48484C8.05516 9.41451 8.15054 9.375 8.25 9.375C8.34946 9.375 8.44484 9.41451 8.51517 9.48484C8.58549 9.55516 8.625 9.65055 8.625 9.75ZM8.625 9.75H8.25M12.375 9.75C12.375 9.84946 12.3355 9.94484 12.2652 10.0152C12.1948 10.0855 12.0995 10.125 12 10.125C11.9005 10.125 11.8052 10.0855 11.7348 10.0152C11.6645 9.94484 11.625 9.84946 11.625 9.75C11.625 9.65055 11.6645 9.55516 11.7348 9.48484C11.8052 9.41451 11.9005 9.375 12 9.375C12.0995 9.375 12.1948 9.41451 12.2652 9.48484C12.3355 9.55516 12.375 9.65055 12.375 9.75ZM12.375 9.75H12M16.125 9.75C16.125 9.84946 16.0855 9.94484 16.0152 10.0152C15.9448 10.0855 15.8495 10.125 15.75 10.125C15.6505 10.125 15.5552 10.0855 15.4848 10.0152C15.4145 9.94484 15.375 9.84946 15.375 9.75C15.375 9.65055 15.4145 9.55516 15.4848 9.48484C15.5552 9.41451 15.6505 9.375 15.75 9.375C15.8495 9.375 15.9448 9.41451 16.0152 9.48484C16.0855 9.55516 16.125 9.65055 16.125 9.75ZM16.125 9.75H15.75M2.25 12.76C2.25 14.36 3.373 15.754 4.957 15.987C6.044 16.147 7.142 16.27 8.25 16.356V21L12.434 16.817C12.6412 16.6107 12.9197 16.4918 13.212 16.485C15.1636 16.437 17.1105 16.2707 19.042 15.987C20.627 15.754 21.75 14.361 21.75 12.759V6.741C21.75 5.139 20.627 3.746 19.043 3.513C16.711 3.17072 14.357 2.99926 12 3C9.608 3 7.256 3.175 4.957 3.513C3.373 3.746 2.25 5.14 2.25 6.741V12.759V12.76Z" stroke="#0C0D0C" stroke-width="1.5" stroke-linecap="round" stroke-linejoin="round"/>
</svg>
