<svg width="32" height="32" viewBox="0 0 32 32" fill="none" xmlns="http://www.w3.org/2000/svg">
<path fill-rule="evenodd" clip-rule="evenodd" d="M16.0132 0.275864C7.15833 0.275864 0 7.48273 0 16.3986C0 23.5255 4.58659 29.5583 10.9494 31.6935C11.7449 31.8541 12.0363 31.3466 12.0363 30.9198C12.0363 30.546 12.0101 29.2648 12.0101 27.9299C7.5556 28.8911 6.62799 26.008 6.62799 26.008C5.91212 24.1394 4.85143 23.6592 4.85143 23.6592C3.39348 22.6715 4.95763 22.6715 4.95763 22.6715C6.57489 22.7783 7.4235 24.3265 7.4235 24.3265C8.85491 26.7821 11.1615 26.0882 12.0894 25.6611C12.2218 24.62 12.6463 23.8993 13.097 23.499C9.54422 23.1252 5.80625 21.7373 5.80625 15.5443C5.80625 13.7825 6.44214 12.3411 7.44973 11.2201C7.29075 10.8198 6.73386 9.16455 7.60903 6.94909C7.60903 6.94909 8.96111 6.52192 12.0098 8.60405C13.315 8.25113 14.6611 8.0716 16.0132 8.07009C17.3653 8.07009 18.7436 8.25714 20.0164 8.60405C23.0654 6.52192 24.4175 6.94909 24.4175 6.94909C25.2926 9.16455 24.7354 10.8198 24.5764 11.2201C25.6106 12.3411 26.2202 13.7825 26.2202 15.5443C26.2202 21.7373 22.4823 23.0984 18.9029 23.499C19.4864 24.0061 19.9898 24.9669 19.9898 26.4885C19.9898 28.6506 19.9636 30.3858 19.9636 30.9195C19.9636 31.3466 20.2553 31.8541 21.0505 31.6939C27.4133 29.558 31.9999 23.5255 31.9999 16.3986C32.0261 7.48273 24.8416 0.275864 16.0132 0.275864Z" fill="black"/>
</svg>
