<svg width="32" height="32" viewBox="0 0 32 32" fill="none" xmlns="http://www.w3.org/2000/svg">
<path d="M20.3636 16C20.3636 18.41 18.41 20.3636 16 20.3636C13.59 20.3636 11.6364 18.41 11.6364 16C11.6364 13.59 13.59 11.6364 16 11.6364C18.41 11.6364 20.3636 13.59 20.3636 16Z" fill="#0C0D0C"/>
<path d="M8.72727 16C8.72727 18.41 6.77361 20.3636 4.36364 20.3636C1.95367 20.3636 0 18.41 0 16C0 13.59 1.95367 11.6364 4.36364 11.6364C6.77361 11.6364 8.72727 13.59 8.72727 16Z" fill="#0C0D0C"/>
<path d="M8.72727 4.36364C8.72727 6.77361 6.77361 8.72727 4.36364 8.72727C1.95367 8.72727 0 6.77361 0 4.36364C0 1.95367 1.95367 0 4.36364 0C6.77361 0 8.72727 1.95367 8.72727 4.36364Z" fill="#0C0D0C"/>
<path d="M8.72727 27.6364C8.72727 30.0463 6.77361 32 4.36364 32C1.95367 32 0 30.0463 0 27.6364C0 25.2264 1.95367 23.2727 4.36364 23.2727C6.77361 23.2727 8.72727 25.2264 8.72727 27.6364Z" fill="#0C0D0C"/>
<path d="M32 4.36364C32 6.77361 30.0463 8.72727 27.6364 8.72727C25.2264 8.72727 23.2727 6.77361 23.2727 4.36364C23.2727 1.95367 25.2264 0 27.6364 0C30.0463 0 32 1.95367 32 4.36364Z" fill="#0C0D0C"/>
<path d="M32 27.6364C32 30.0463 30.0463 32 27.6364 32C25.2264 32 23.2727 30.0463 23.2727 27.6364C23.2727 25.2264 25.2264 23.2727 27.6364 23.2727C30.0463 23.2727 32 25.2264 32 27.6364Z" fill="#0C0D0C"/>
<path d="M32 16C32 18.41 30.0463 20.3636 27.6364 20.3636C25.2264 20.3636 23.2727 18.41 23.2727 16C23.2727 13.59 25.2264 11.6364 27.6364 11.6364C30.0463 11.6364 32 13.59 32 16Z" fill="#0C0D0C"/>
<path d="M27.6364 11.6364V20.3636H16V11.6364H27.6364Z" fill="#0C0D0C"/>
<path d="M0 16H8.72727V27.6364H0V16Z" fill="#0C0D0C"/>
</svg>
