<svg width="24" height="24" viewBox="0 0 24 24" fill="none" xmlns="http://www.w3.org/2000/svg">
<path fill-rule="evenodd" clip-rule="evenodd" d="M14 10C14 10.3489 13.9404 10.6839 13.8309 10.9953C13.6993 11.3698 13.4954 11.7102 13.2361 12C12.6868 12.6137 11.8885 13 11 13C10.7097 13 10.4291 12.9588 10.1636 12.8818C8.91373 12.5197 8 11.3666 8 10C8 8.34315 9.34315 7 11 7C11.7568 7 12.4481 7.28022 12.9759 7.74257C13.6036 8.29244 14 9.09993 14 10ZM16.9 18C16.4367 15.7178 14.419 14 12 14H11H10C9.62683 14 9.26321 14.0409 8.91337 14.1184C6.67443 14.6146 5 16.6117 5 19V20H17V19C17 18.6575 16.9656 18.3231 16.9 18ZM14 5C13.0816 5 12.2596 5.41267 11.7093 6.0627C13.5801 6.39748 15 8.03292 15 10C15 10.2954 14.968 10.5832 14.9072 10.8604C16.1206 10.4759 17 9.34063 17 8C17 6.34315 15.6569 5 14 5ZM15 12H14.4649C14.2015 12.4553 13.8509 12.8539 13.436 13.1729C15.7395 13.7387 17.5202 15.6347 17.917 18H20V17C20 14.2386 17.7614 12 15 12Z" fill="#343434"/>
</svg>
