<svg width="347" height="231" viewBox="0 0 347 231" fill="none" xmlns="http://www.w3.org/2000/svg">
<path d="M0 14.6272C0 14.6272 9.13677 0.294189 28.9167 0.294189C48.6966 0.294189 57.8333 14.6272 57.8333 14.6272C57.8333 14.6272 66.9701 28.9602 86.75 28.9602C106.53 28.9602 115.667 14.6272 115.667 14.6272V43.2931C115.667 43.2931 106.53 57.6261 86.75 57.6261C66.9701 57.6261 57.8333 43.2931 57.8333 43.2931C57.8333 43.2931 48.6966 28.9602 28.9167 28.9602C9.13677 28.9602 0 43.2931 0 43.2931V14.6272Z" fill="#D9DFDB"/>
<path d="M0 72.4071C0 72.4071 9.13677 58.0741 28.9167 58.0741C48.6966 58.0741 57.8333 72.4071 57.8333 72.4071C57.8333 72.4071 66.9701 86.7401 86.75 86.7401C106.53 86.7401 115.667 72.4071 115.667 72.4071V101.073C115.667 101.073 106.53 115.406 86.75 115.406C66.9701 115.406 57.8333 101.073 57.8333 101.073C57.8333 101.073 48.6966 86.7401 28.9167 86.7401C9.13677 86.7401 0 101.073 0 101.073V72.4071Z" fill="#D9DFDB"/>
<path d="M0 130.187C0 130.187 9.13677 115.854 28.9167 115.854C48.6966 115.854 57.8333 130.187 57.8333 130.187C57.8333 130.187 66.9701 144.52 86.75 144.52C106.53 144.52 115.667 130.187 115.667 130.187V158.853C115.667 158.853 106.53 173.186 86.75 173.186C66.9701 173.186 57.8333 158.853 57.8333 158.853C57.8333 158.853 48.6966 144.52 28.9167 144.52C9.13677 144.52 0 158.853 0 158.853V130.187Z" fill="#D9DFDB"/>
<path d="M0 187.967C0 187.967 9.13677 173.634 28.9167 173.634C48.6966 173.634 57.8333 187.967 57.8333 187.967C57.8333 187.967 66.9701 202.3 86.75 202.3C106.53 202.3 115.667 187.967 115.667 187.967V216.633C115.667 216.633 106.53 230.966 86.75 230.966C66.9701 230.966 57.8333 216.633 57.8333 216.633C57.8333 216.633 48.6966 202.3 28.9167 202.3C9.13677 202.3 0 216.633 0 216.633V187.967Z" fill="#D9DFDB"/>
<path d="M115.667 14.6272C115.667 14.6272 124.803 0.294189 144.583 0.294189C164.363 0.294189 173.5 14.6272 173.5 14.6272C173.5 14.6272 182.637 28.9602 202.417 28.9602C222.197 28.9602 231.333 14.6272 231.333 14.6272V43.2931C231.333 43.2931 222.197 57.6261 202.417 57.6261C182.637 57.6261 173.5 43.2931 173.5 43.2931C173.5 43.2931 164.363 28.9602 144.583 28.9602C124.803 28.9602 115.667 43.2931 115.667 43.2931V14.6272Z" fill="#D9DFDB"/>
<path d="M115.667 72.4071C115.667 72.4071 124.803 58.0741 144.583 58.0741C164.363 58.0741 173.5 72.4071 173.5 72.4071C173.5 72.4071 182.637 86.7401 202.417 86.7401C222.197 86.7401 231.333 72.4071 231.333 72.4071V101.073C231.333 101.073 222.197 115.406 202.417 115.406C182.637 115.406 173.5 101.073 173.5 101.073C173.5 101.073 164.363 86.7401 144.583 86.7401C124.803 86.7401 115.667 101.073 115.667 101.073V72.4071Z" fill="#D9DFDB"/>
<path d="M115.667 130.187C115.667 130.187 124.803 115.854 144.583 115.854C164.363 115.854 173.5 130.187 173.5 130.187C173.5 130.187 182.637 144.52 202.417 144.52C222.197 144.52 231.333 130.187 231.333 130.187V158.853C231.333 158.853 222.197 173.186 202.417 173.186C182.637 173.186 173.5 158.853 173.5 158.853C173.5 158.853 164.363 144.52 144.583 144.52C124.803 144.52 115.667 158.853 115.667 158.853V130.187Z" fill="#D9DFDB"/>
<path d="M115.667 187.967C115.667 187.967 124.803 173.634 144.583 173.634C164.363 173.634 173.5 187.967 173.5 187.967C173.5 187.967 182.637 202.3 202.417 202.3C222.197 202.3 231.333 187.967 231.333 187.967V216.633C231.333 216.633 222.197 230.966 202.417 230.966C182.637 230.966 173.5 216.633 173.5 216.633C173.5 216.633 164.363 202.3 144.583 202.3C124.803 202.3 115.667 216.633 115.667 216.633V187.967Z" fill="#D9DFDB"/>
<path d="M231.333 14.6272C231.333 14.6272 240.47 0.294189 260.25 0.294189C280.03 0.294189 289.167 14.6272 289.167 14.6272C289.167 14.6272 298.303 28.9602 318.083 28.9602C337.863 28.9602 347 14.6272 347 14.6272V43.2931C347 43.2931 337.863 57.6261 318.083 57.6261C298.303 57.6261 289.167 43.2931 289.167 43.2931C289.167 43.2931 280.03 28.9602 260.25 28.9602C240.47 28.9602 231.333 43.2931 231.333 43.2931V14.6272Z" fill="#D9DFDB"/>
<path d="M231.333 72.4071C231.333 72.4071 240.47 58.0741 260.25 58.0741C280.03 58.0741 289.167 72.4071 289.167 72.4071C289.167 72.4071 298.303 86.7401 318.083 86.7401C337.863 86.7401 347 72.4071 347 72.4071V101.073C347 101.073 337.863 115.406 318.083 115.406C298.303 115.406 289.167 101.073 289.167 101.073C289.167 101.073 280.03 86.7401 260.25 86.7401C240.47 86.7401 231.333 101.073 231.333 101.073V72.4071Z" fill="#D9DFDB"/>
<path d="M231.333 130.187C231.333 130.187 240.47 115.854 260.25 115.854C280.03 115.854 289.167 130.187 289.167 130.187C289.167 130.187 298.303 144.52 318.083 144.52C337.863 144.52 347 130.187 347 130.187V158.853C347 158.853 337.863 173.186 318.083 173.186C298.303 173.186 289.167 158.853 289.167 158.853C289.167 158.853 280.03 144.52 260.25 144.52C240.47 144.52 231.333 158.853 231.333 158.853V130.187Z" fill="#D9DFDB"/>
<path d="M231.333 187.967C231.333 187.967 240.47 173.634 260.25 173.634C280.03 173.634 289.167 187.967 289.167 187.967C289.167 187.967 298.303 202.3 318.083 202.3C337.863 202.3 347 187.967 347 187.967V216.633C347 216.633 337.863 230.966 318.083 230.966C298.303 230.966 289.167 216.633 289.167 216.633C289.167 216.633 280.03 202.3 260.25 202.3C240.47 202.3 231.333 216.633 231.333 216.633V187.967Z" fill="#D9DFDB"/>
</svg>
